<svg width="24" height="24" viewBox="0 0 24 24" fill="none" xmlns="http://www.w3.org/2000/svg">
<path d="M20.5 9.03451C19.2743 5.52092 15.9315 3 12 3C8.06846 3 4.72571 5.52092 3.5 9.03451M20.5 9.03451C20.8239 9.96308 21 10.961 21 12C21 13.039 20.8239 14.0369 20.5 14.9655M20.5 9.03451H3.5M3.5 9.03451C3.17607 9.96308 3 10.961 3 12C3 13.039 3.17607 14.0369 3.5 14.9655M20.5 14.9655C19.2743 18.4791 15.9315 21 12 21C8.06846 21 4.72571 18.4791 3.5 14.9655M20.5 14.9655H3.5" stroke="#E1E3E5" stroke-width="2"/>
<path d="M16 12C16 16.9706 14.2091 21 12 21C9.79086 21 8 16.9706 8 12C8 7.02944 9.79086 3 12 3C14.2091 3 16 7.02944 16 12Z" stroke="#E1E3E5" stroke-width="2"/>
</svg>
